<?xml version="1.0" ?><svg id="art" viewBox="0 0 64 64" xmlns="http://www.w3.org/2000/svg"><defs><style>.cls-1{fill:#041256;}.cls-2{fill:#385272;}.cls-3{fill:#2c4460;}.cls-4{fill:#456a82;}.cls-5{fill:#6d96ad;}.cls-6{fill:#5df9e6;}.cls-7{fill:#577593;}.cls-8{fill:#8ca3b5;}.cls-9{fill:#f4d2ba;}.cls-10{fill:#eac2a7;}.cls-11{fill:#ffeadc;}.cls-12{fill:#f9dfcd;}.cls-13{fill:#283a7c;}</style></defs><title/><ellipse class="cls-1" cx="32" cy="33.79" rx="14.4" ry="8.96"/><path class="cls-2" d="M32,37.33c-9.52,0-18.08,2.41-24,6.23V56H56V43.57C50.09,39.74,41.53,37.33,32,37.33Z"/><path class="cls-3" d="M13.84,56H50.16a28.86,28.86,0,0,0,4.47-13.26,45.14,45.14,0,0,0-20-5.34c-.88,0-1.75-.07-2.65-.07h0c-.89,0-1.76,0-2.64.07a45.09,45.09,0,0,0-20,5.33A28.75,28.75,0,0,0,13.84,56Z"/><path class="cls-4" d="M11.26,41.74A26.06,26.06,0,0,0,16.53,56H47.47a26,26,0,0,0,5.27-14.26A47.78,47.78,0,0,0,32,37.33,47.75,47.75,0,0,0,11.26,41.74Z"/><path class="cls-5" d="M33.62,37.34h-.4a50.1,50.1,0,0,0-20.74,4.18,24,24,0,0,0,5.27,13.54h.81a24,24,0,0,1-5.27-13.54A50,50,0,0,1,33.62,37.34Z"/><path class="cls-5" d="M36.12,37.34h-.41A50.13,50.13,0,0,0,15,41.51a24.07,24.07,0,0,0,5.27,13.54h.81a24,24,0,0,1-5.27-13.54A50,50,0,0,1,36.12,37.34Z"/><path class="cls-5" d="M38.61,37.34H38.2a50.08,50.08,0,0,0-20.73,4.18,24,24,0,0,0,5.27,13.54h.8a24.07,24.07,0,0,1-5.27-13.54A50,50,0,0,1,38.61,37.34Z"/><path class="cls-5" d="M41.1,37.34h-.4A50.1,50.1,0,0,0,20,41.51a24,24,0,0,0,5.27,13.54H26a24,24,0,0,1-5.27-13.54A49.92,49.92,0,0,1,41.1,37.34Z"/><path class="cls-5" d="M43.59,37.34h-.4a50.1,50.1,0,0,0-20.74,4.18,24,24,0,0,0,5.27,13.54h.81a24,24,0,0,1-5.27-13.54A49.92,49.92,0,0,1,43.59,37.34Z"/><path class="cls-5" d="M30.38,37.34h.4a50.1,50.1,0,0,1,20.74,4.18,24,24,0,0,1-5.27,13.54h-.81a24,24,0,0,0,5.27-13.54A50,50,0,0,0,30.38,37.34Z"/><path class="cls-5" d="M27.88,37.34h.41A50.13,50.13,0,0,1,49,41.51a24.07,24.07,0,0,1-5.27,13.54H43a24,24,0,0,0,5.27-13.54A50,50,0,0,0,27.88,37.34Z"/><path class="cls-5" d="M25.39,37.34h.41a50.08,50.08,0,0,1,20.73,4.18,24,24,0,0,1-5.27,13.54h-.8a24.07,24.07,0,0,0,5.27-13.54A50,50,0,0,0,25.39,37.34Z"/><path class="cls-5" d="M22.9,37.34h.4A50.1,50.1,0,0,1,44,41.51a24,24,0,0,1-5.27,13.54H38a24,24,0,0,0,5.27-13.54A49.92,49.92,0,0,0,22.9,37.34Z"/><path class="cls-5" d="M20.41,37.34h.4a50.1,50.1,0,0,1,20.74,4.18,24,24,0,0,1-5.27,13.54h-.81a24,24,0,0,0,5.27-13.54A49.92,49.92,0,0,0,20.41,37.34Z"/><path class="cls-4" d="M32,37.33c-9.52,0-18.08,2.41-24,6.23V47.4c5.91-3.82,14.47-6.23,24-6.23s18.1,2.41,24,6.24V43.57C50.09,39.74,41.53,37.33,32,37.33Z"/><path class="cls-5" d="M32,37.33c-9.52,0-18.08,2.41-24,6.23v2.38c5.91-3.82,14.47-6.23,24-6.23S50.09,42.12,56,46V43.57C50.09,39.74,41.53,37.33,32,37.33Z"/><path class="cls-6" d="M32.2,41.17c9.45,0,17.93,2.44,23.8,6.24V43.57c-5.87-3.8-14.35-6.2-23.8-6.23Z"/><path class="cls-1" d="M57,57H7V43l.46-.3c6.28-4.06,15.22-6.39,24.54-6.39s18.26,2.34,24.54,6.4L57,43ZM9,55H55V44.12c-5.94-3.68-14.29-5.79-23-5.79S14.94,40.44,9,44.11Z"/><polygon class="cls-7" points="47.65 41.09 45.41 34.81 46.34 34.65 44.3 31.81 44.3 30.13 38.73 30.54 32.01 44.75 25.3 30.54 19.73 30.13 19.73 31.81 17.68 34.65 18.61 34.81 16.38 41.09 19.17 40.3 16.38 44.27 20.38 44.27 20.84 49.53 23.93 49.09 23.5 51.57 24.67 50.86 26.25 53.41 28.45 51.66 29.48 54.15 30.53 52.63 32.01 54.32 33.5 52.63 34.55 54.15 35.57 51.66 37.78 53.41 39.35 50.86 40.52 51.57 40.09 49.09 43.19 49.53 43.64 44.27 47.65 44.27 44.85 40.3 47.65 41.09"/><path class="cls-2" d="M38.73,30.54,32,44.75l-.18,3.76a5.31,5.31,0,0,0,3.78-1.57l3.71-3.7A5.39,5.39,0,0,0,40.85,40l.26-2.41A15.11,15.11,0,0,1,42.29,33a13.1,13.1,0,0,0,.9-2.78Z"/><polygon class="cls-8" points="19.19 41.09 21.42 34.81 20.49 34.65 22.54 31.81 22.54 30.34 19.73 30.13 19.73 31.81 17.68 34.65 18.61 34.81 16.38 41.09 19.17 40.3 16.38 44.27 19.19 44.27 21.98 40.3 19.19 41.09"/><polygon class="cls-8" points="33.42 52.72 33.34 52.63 32.76 53.47 33.42 52.72"/><polygon class="cls-8" points="42.9 49.09 42.98 49.5 43.19 49.53 43.22 49.13 42.9 49.09"/><polygon class="cls-8" points="34.82 44.75 41.54 30.54 44.3 30.34 44.3 30.13 38.73 30.54 33.42 41.77 34.82 44.75"/><polygon class="cls-8" points="27.48 50.86 26.32 51.57 26.74 49.09 23.86 49.5 23.5 51.57 24.67 50.86 26.25 53.41 28.13 51.91 27.48 50.86"/><polygon class="cls-8" points="23.19 44.27 20.38 44.27 20.84 49.53 23.61 49.13 23.19 44.27"/><polygon class="cls-8" points="38.38 51.66 37.69 53.34 37.78 53.41 38.7 51.91 38.38 51.66"/><polygon class="cls-8" points="34.08 53.47 34.55 54.15 34.59 54.05 34.08 53.47"/><polygon class="cls-6" points="44.56 41.09 42.33 34.81 43.26 34.65 41.22 31.81 41.22 30.34 44.03 30.13 44.03 31.81 46.07 34.65 45.14 34.81 47.38 41.09 44.58 40.3 47.38 44.27 44.56 44.27 41.77 40.3 44.56 41.09"/><polygon class="cls-6" points="30.34 52.72 30.42 52.63 31 53.47 30.34 52.72"/><polygon class="cls-6" points="20.85 49.09 20.78 49.5 20.57 49.53 20.53 49.13 20.85 49.09"/><polygon class="cls-6" points="28.93 44.75 22.21 30.54 19.46 30.34 19.46 30.13 25.02 30.54 30.34 41.77 28.93 44.75"/><polygon class="cls-6" points="36.27 50.86 37.44 51.57 37.01 49.09 39.9 49.5 40.25 51.57 39.08 50.86 37.51 53.41 35.62 51.91 36.27 50.86"/><polygon class="cls-6" points="40.56 44.27 43.38 44.27 42.92 49.53 40.14 49.13 40.56 44.27"/><polygon class="cls-6" points="25.37 51.66 26.07 53.34 25.98 53.41 25.05 51.91 25.37 51.66"/><polygon class="cls-6" points="29.68 53.47 29.21 54.15 29.17 54.05 29.68 53.47"/><ellipse class="cls-9" cx="32.01" cy="43.4" rx="3.13" ry="5.6"/><path class="cls-1" d="M32,50.19l-.54-.35a7.58,7.58,0,0,1,0-12.88l.54-.35.54.35a7.57,7.57,0,0,1,0,12.88ZM32,39a5.56,5.56,0,0,0,0,8.74A5.55,5.55,0,0,0,32,39Z"/><path class="cls-1" d="M34.77,56.22l-1.37-2L32,55.83l-1.39-1.58-1.36,2L28,53.27l-2,1.62-1.65-2.66-2.19,1.33.56-3.29-2.78.4-.47-5.4h-5L16.73,42l-1.94.56,2.48-7-1.33-.24,2.79-3.86V29.05l7.16.53L32,39.87l6.13-10.29,7.16-.53v2.44l2.79,3.86-1.34.24,2.49,7-2-.55,2.28,3.24h-5l-.47,5.4-2.78-.4.57,3.29-2.2-1.33L38,54.89l-2-1.62ZM30.44,51,32,52.8,33.59,51l.73,1,.84-2,2.36,1.88L39,49.49l.14.09-.29-1.67,3.41.48.45-5.12h3l-3.3-4.7,3.63,1-2-5.57.53-.09-1.3-1.8V31.2l-4,.3L32,43.78,24.7,31.5l-4-.3v.94l-1.3,1.8L20,34,18,39.6l3.64-1-3.3,4.7h3l.44,5.12,3.41-.48-.29,1.67.14-.09,1.51,2.44,2.36-1.88.83,2h0Z"/><path class="cls-9" d="M45.09,20.9a13.09,13.09,0,1,0-25,5.33,15.52,15.52,0,0,1,1.22,4.7l.25,2.41a5.32,5.32,0,0,0,1.54,3.21l3.71,3.71a5.34,5.34,0,0,0,3.77,1.56h2.92a5.34,5.34,0,0,0,3.77-1.56l3.71-3.71a5.32,5.32,0,0,0,1.54-3.21l.25-2.41a14.84,14.84,0,0,1,1.19-4.63A13,13,0,0,0,45.09,20.9Z"/><path class="cls-10" d="M33.93,37.5c0,.16-.86,1.84-1.93,1.84s-1.93-1.68-1.93-1.84.86-.3,1.93-.3S33.93,37.33,33.93,37.5Z"/><path class="cls-11" d="M22.47,13.9,21.87,25l-.68,1.12,1.28,2.17,1-3.53a2.08,2.08,0,0,1,2.4-1.48l2.74.53a2,2,0,0,0,1.59-.34l.89-.62A2.07,2.07,0,0,0,32,21.1V16.56Z"/><path class="cls-10" d="M34.41,32.25,34,32l-2,.71L30,32l-.42.25c-.64.38-.51,1.15.23,1.39l2.18.7,2.18-.7C34.92,33.4,35.05,32.63,34.41,32.25Z"/><path class="cls-11" d="M28.6,26.08l2,1.45a2,2,0,0,1,.82,1.61v3.78L30,32l-.22.08,0-.68.75-.28-.64-1.45a1,1,0,0,1,0-.69l.09-.31a1,1,0,0,0-.15-.86Z"/><path class="cls-12" d="M35.4,26.08l-2,1.45a2,2,0,0,0-.82,1.61v3.78L34,32l.22.08,0-.68-.75-.28.64-1.45a1,1,0,0,0,0-.69L34,28.67a1,1,0,0,1,.15-.86Z"/><path class="cls-11" d="M35.47,41.17H32.55a5.34,5.34,0,0,1-3.77-1.56L25.07,35.9a5.36,5.36,0,0,1-1.53-3.21l-.26-2.41a15.52,15.52,0,0,0-1.22-4.7A13.06,13.06,0,0,1,29,8.16,13.16,13.16,0,0,0,19,19.27a13,13,0,0,0,1,7,15.52,15.52,0,0,1,1.22,4.7l.25,2.41a5.32,5.32,0,0,0,1.54,3.21l3.71,3.71a5.34,5.34,0,0,0,3.77,1.56h2.92a5.32,5.32,0,0,0,2.61-.71C35.87,41.13,35.67,41.17,35.47,41.17Z"/><path class="cls-6" d="M28.53,41.17h2.92a5.34,5.34,0,0,0,3.77-1.56l3.71-3.71a5.36,5.36,0,0,0,1.53-3.21l.26-2.41a15.52,15.52,0,0,1,1.22-4.7,13,13,0,0,0,1-7A13.18,13.18,0,0,0,35,8.16,13.16,13.16,0,0,1,45,19.27a13,13,0,0,1-1,7,15.52,15.52,0,0,0-1.22,4.7l-.25,2.41a5.32,5.32,0,0,1-1.54,3.21l-3.71,3.71a5.34,5.34,0,0,1-3.77,1.56H30.54a5.32,5.32,0,0,1-2.61-.71C28.13,41.13,28.33,41.17,28.53,41.17Z"/><path class="cls-1" d="M32,33.42l-.36-.06a1.22,1.22,0,0,1-.52-.19,7.5,7.5,0,0,1-.56-.53l-.51-.5c-.1-.14-.32.09-.52.22l.21-.3a.36.36,0,0,1,.43-.14l.67.31c.21.09.48.23.63.28s.07,0,.17,0l.36-.06Z"/><path class="cls-1" d="M34.47,32.36c-.2-.13-.42-.36-.52-.22l-.51.5a7.5,7.5,0,0,1-.56.53,1.22,1.22,0,0,1-.52.19l-.36.06v-1l.36.06c.1,0,.1,0,.17,0s.42-.19.63-.28l.67-.31a.36.36,0,0,1,.43.14Z"/><path class="cls-1" d="M28,35.2l1.21.09h-.07l1.15-.37h.11l1.7,0a.49.49,0,0,1,.49.51.52.52,0,0,1-.51.5.58.58,0,0,1-.14,0l-1.63-.48h.1l-1.2.16h-.07Z"/><path class="cls-1" d="M36,35.2l-1.14.41h-.07l-1.2-.16h.1l-1.63.48a.5.5,0,0,1-.63-.34.5.5,0,0,1,.34-.62.3.3,0,0,1,.13,0l1.7,0h.11l1.15.37h-.07Z"/><path class="cls-1" d="M30.15,37.33a7,7,0,0,1,3.7,0,7,7,0,0,1-3.7,0Z"/><path class="cls-10" d="M24.48,25.33l.26.92a2.27,2.27,0,0,0,.71,1.11l.9.74a1.83,1.83,0,0,0,1,.41l1,.06a1.18,1.18,0,0,0,1.26-1.15v-.59L28.43,26Z"/><path class="cls-1" d="M24.48,25.33a7.3,7.3,0,0,1,2.79-.06l.67.14a2.46,2.46,0,0,1,.74.27,2.27,2.27,0,0,1,.59.52,4,4,0,0,1,.37.63,4.55,4.55,0,0,1-.68-.25,3.18,3.18,0,0,0-.58-.17,3.41,3.41,0,0,0-.59-.07l-.68-.08A6.93,6.93,0,0,1,24.48,25.33Z"/><path class="cls-1" d="M28.15,26.58a.75.75,0,0,1-1.5,0,.75.75,0,0,1,1.5,0Z"/><path class="cls-10" d="M39.52,25.33l-.26.92a2.27,2.27,0,0,1-.71,1.11l-.9.74a1.83,1.83,0,0,1-1,.41l-1,.06a1.18,1.18,0,0,1-1.26-1.15v-.59L35.57,26Z"/><path class="cls-1" d="M39.52,25.33a6.93,6.93,0,0,1-2.63.93l-.68.08a3.41,3.41,0,0,0-.59.07,3.18,3.18,0,0,0-.58.17,4.55,4.55,0,0,1-.68.25,4,4,0,0,1,.37-.63,2.27,2.27,0,0,1,.59-.52,2.46,2.46,0,0,1,.74-.27l.67-.14A7.3,7.3,0,0,1,39.52,25.33Z"/><path class="cls-1" d="M35.85,26.58a.75.75,0,0,0,1.5,0,.75.75,0,0,0-1.5,0Z"/><path class="cls-1" d="M27.17,36.22A11,11,0,0,1,28,35.14a3.53,3.53,0,0,1,1.17-.85l1.28-.48,1.23-.45a1,1,0,0,1,1.3.6,1,1,0,0,1-.6,1.31,1.26,1.26,0,0,1-.38.06l-2.58-.08a2.78,2.78,0,0,0-1.12.29A12.06,12.06,0,0,0,27.17,36.22Z"/><path class="cls-1" d="M36.83,36.22a12.06,12.06,0,0,0-1.09-.68,2.78,2.78,0,0,0-1.12-.29L32,35.33a1,1,0,0,1-1.05-1,1,1,0,0,1,1-1.05,1,1,0,0,1,.38.07l1.23.45,1.28.48a3.53,3.53,0,0,1,1.17.85A11,11,0,0,1,36.83,36.22Z"/><path class="cls-1" d="M24.37,32.17l-1.27-.84c-.41-.28-.85-.54-1.28-.89a8.4,8.4,0,0,1-1.16-1.15l-1-1.22,1.76-1,.49,1.4a6.74,6.74,0,0,0,.63,1.26A12.82,12.82,0,0,0,23.44,31Z"/><path class="cls-1" d="M39.63,32.17,40.56,31a12.82,12.82,0,0,0,.87-1.19,6.74,6.74,0,0,0,.63-1.26l.49-1.4,1.76,1-1,1.22a8.4,8.4,0,0,1-1.16,1.15c-.43.35-.87.61-1.28.89Z"/><path class="cls-1" d="M33.46,42.82H30.54A6.29,6.29,0,0,1,26.06,41l-3.71-3.7a6.36,6.36,0,0,1-1.82-3.81L20.27,31a14.49,14.49,0,0,0-1.13-4.4,14.09,14.09,0,1,1,27-5.74,13.84,13.84,0,0,1-1.26,5.81A13.93,13.93,0,0,0,43.73,31l-.26,2.41a6.36,6.36,0,0,1-1.82,3.81L37.94,41A6.29,6.29,0,0,1,33.46,42.82ZM32,8.81a12,12,0,0,0-1.33.07A12.08,12.08,0,0,0,21,25.82a16.39,16.39,0,0,1,1.3,5l.26,2.41a4.36,4.36,0,0,0,1.24,2.61l3.71,3.71a4.31,4.31,0,0,0,3.07,1.27h2.92a4.31,4.31,0,0,0,3.07-1.27l3.71-3.71a4.36,4.36,0,0,0,1.24-2.61l.26-2.4A15.81,15.81,0,0,1,43,25.88a11.87,11.87,0,0,0,1.08-5,12.13,12.13,0,0,0-4-9A12,12,0,0,0,32,8.81Z"/><path class="cls-1" d="M35.53,40.37l-.55.18a3,3,0,0,1-2.53-.28h0a.86.86,0,0,0-.9,0h0a3,3,0,0,1-2.53.28l-.55-.18L22.14,37l3.25,4.07a12.74,12.74,0,0,0,6.29,4.27h0a1.16,1.16,0,0,0,.64,0h0a12.74,12.74,0,0,0,6.29-4.27L41.86,37Z"/><path class="cls-1" d="M43,11.82a12.91,12.91,0,0,0-6.78-4.4h0a16,16,0,0,0-8.52,0h0A12.91,12.91,0,0,0,21,11.82a14.55,14.55,0,0,0-3.13,9V24a2,2,0,0,0,.59,1.41L21.92,29l-.34-2.81A1.77,1.77,0,0,1,21.87,25l.78-1.16A2,2,0,0,0,23,22.45l-.42-3.52a.79.79,0,0,1,.65-.87l4.2-.69a4.58,4.58,0,0,1,3.9,1.18,1,1,0,0,0,1.38,0,4.58,4.58,0,0,1,3.9-1.18l4.2.69a.79.79,0,0,1,.65.87L41,22.45a2,2,0,0,0,.33,1.35L42.13,25a1.77,1.77,0,0,1,.29,1.18L42.08,29l3.5-3.55A2,2,0,0,0,46.17,24V20.84A14.55,14.55,0,0,0,43,11.82Z"/><path class="cls-1" d="M43,11.82a12.91,12.91,0,0,0-6.78-4.4h0a16,16,0,0,0-8.52,0h0A12.91,12.91,0,0,0,21,11.82a14.55,14.55,0,0,0-3.13,9V24a2,2,0,0,0,.59,1.41L21.92,29l-.34-2.81A1.77,1.77,0,0,1,21.87,25l.78-1.16A2,2,0,0,0,23,22.45l-.42-3.52a.79.79,0,0,1,.65-.87l4.2-.69a4.58,4.58,0,0,1,3.9,1.18,1,1,0,0,0,1.38,0,4.58,4.58,0,0,1,3.9-1.18l4.2.69a.79.79,0,0,1,.65.87L41,22.45a2,2,0,0,0,.33,1.35L42.13,25a1.77,1.77,0,0,1,.29,1.18L42.08,29l3.5-3.55A2,2,0,0,0,46.17,24V20.84A14.55,14.55,0,0,0,43,11.82Z"/><path class="cls-13" d="M26.46,12.47a15.19,15.19,0,0,1-.4-2.28,3.05,3.05,0,0,0-.44,2.49,3.09,3.09,0,0,0,1.6,2A14.67,14.67,0,0,1,26.46,12.47Z"/><path class="cls-13" d="M30.17,12.75a25.15,25.15,0,0,1-.69-3.91,5.18,5.18,0,0,0-.8,4.29,5.24,5.24,0,0,0,2.78,3.37A24.62,24.62,0,0,1,30.17,12.75Z"/><path class="cls-13" d="M24.38,13.57a13,13,0,0,1-.82-1.69,2.49,2.49,0,0,0,1.89,3.24A11.42,11.42,0,0,1,24.38,13.57Z"/><path class="cls-13" d="M23,15A10.28,10.28,0,0,1,22,13.9,2.07,2.07,0,0,0,24.26,16,9.63,9.63,0,0,1,23,15Z"/><path class="cls-6" d="M37.54,12.47a15.19,15.19,0,0,0,.4-2.28,3.05,3.05,0,0,1,.44,2.49,3.09,3.09,0,0,1-1.6,2A14.67,14.67,0,0,0,37.54,12.47Z"/><path class="cls-6" d="M39.62,13.57a13,13,0,0,0,.82-1.69,2.49,2.49,0,0,1-1.89,3.24A11.42,11.42,0,0,0,39.62,13.57Z"/><path class="cls-6" d="M41,15a10.28,10.28,0,0,0,1.07-1.14A2.07,2.07,0,0,1,39.74,16,9.63,9.63,0,0,0,41,15Z"/><path class="cls-9" d="M20.49,27.33A10.06,10.06,0,0,0,18.31,25c-.75-.32-2,2.63,0,4.26s1.48,2.54,2.84,2.75Z"/><path class="cls-1" d="M21.15,33H21a2.45,2.45,0,0,1-1.9-1.37A5.41,5.41,0,0,0,17.68,30a4,4,0,0,1-.94-5.1,1.56,1.56,0,0,1,2-.86,9.23,9.23,0,0,1,2.6,2.69.9.9,0,0,1,.18.43l.66,4.67a1,1,0,0,1-.29.85A1,1,0,0,1,21.15,33Zm-2.83-6.74a2.32,2.32,0,0,0-.11.79,1.87,1.87,0,0,0,.72,1.42,7.59,7.59,0,0,1,.81.73l-.21-1.48A14.88,14.88,0,0,0,18.32,26.26Z"/><path class="cls-9" d="M43.51,27.33A10.06,10.06,0,0,1,45.69,25c.75-.32,2,2.63,0,4.26S44.21,31.79,42.85,32Z"/><path class="cls-1" d="M42.85,33a1,1,0,0,1-.7-.29,1,1,0,0,1-.29-.85l.66-4.67a.9.9,0,0,1,.18-.43,9.23,9.23,0,0,1,2.6-2.69,1.56,1.56,0,0,1,2,.86,4,4,0,0,1-.94,5.1,5.41,5.41,0,0,0-1.41,1.59A2.45,2.45,0,0,1,43,33Zm1.62-5.28-.21,1.48a7.59,7.59,0,0,1,.81-.73,1.87,1.87,0,0,0,.72-1.42,2.32,2.32,0,0,0-.11-.79A14.88,14.88,0,0,0,44.47,27.72Z"/></svg>